<mxfile host="app.diagrams.net" modified="2024-05-16T08:06:36.447Z" agent="Mozilla/5.0 (Windows NT 10.0; Win64; x64) AppleWebKit/537.36 (KHTML, like Gecko) Chrome/125.0.0.0 Safari/537.36 Edg/125.0.0.0" etag="b4DyCL3bNbfORGch5YUb" version="24.4.2" type="github">
  <diagram name="第 1 页" id="1F1AiMC7PK8RF2ciJAmA">
    <mxGraphModel dx="1426" dy="793" grid="1" gridSize="10" guides="1" tooltips="1" connect="1" arrows="1" fold="1" page="1" pageScale="1" pageWidth="1169" pageHeight="827" math="0" shadow="0">
      <root>
        <mxCell id="0" />
        <mxCell id="1" parent="0" />
        <mxCell id="Rm1JZIe86LfK_nkms-XK-46" value="" style="rounded=0;whiteSpace=wrap;html=1;fillColor=#d5e8d4;strokeColor=#82b366;" vertex="1" parent="1">
          <mxGeometry x="550" y="390" width="260" height="416" as="geometry" />
        </mxCell>
        <mxCell id="Rm1JZIe86LfK_nkms-XK-10" style="edgeStyle=orthogonalEdgeStyle;rounded=0;orthogonalLoop=1;jettySize=auto;html=1;entryX=0;entryY=0.5;entryDx=0;entryDy=0;" edge="1" parent="1" source="Rm1JZIe86LfK_nkms-XK-11" target="Rm1JZIe86LfK_nkms-XK-13">
          <mxGeometry relative="1" as="geometry">
            <mxPoint x="472.5" y="522.5" as="targetPoint" />
          </mxGeometry>
        </mxCell>
        <mxCell id="Rm1JZIe86LfK_nkms-XK-11" value="原始语义信息&lt;br&gt;图像/视频" style="rounded=1;whiteSpace=wrap;html=1;fillColor=#dae8fc;strokeColor=#6c8ebf;" vertex="1" parent="1">
          <mxGeometry x="180" y="550" width="130" height="70" as="geometry" />
        </mxCell>
        <mxCell id="Rm1JZIe86LfK_nkms-XK-25" style="edgeStyle=orthogonalEdgeStyle;rounded=0;orthogonalLoop=1;jettySize=auto;html=1;entryX=0;entryY=0.5;entryDx=0;entryDy=0;" edge="1" parent="1" source="Rm1JZIe86LfK_nkms-XK-13" target="Rm1JZIe86LfK_nkms-XK-21">
          <mxGeometry relative="1" as="geometry" />
        </mxCell>
        <mxCell id="Rm1JZIe86LfK_nkms-XK-26" style="edgeStyle=orthogonalEdgeStyle;rounded=0;orthogonalLoop=1;jettySize=auto;html=1;exitX=1;exitY=0.5;exitDx=0;exitDy=0;entryX=0;entryY=0.5;entryDx=0;entryDy=0;" edge="1" parent="1" source="Rm1JZIe86LfK_nkms-XK-13" target="Rm1JZIe86LfK_nkms-XK-15">
          <mxGeometry relative="1" as="geometry" />
        </mxCell>
        <mxCell id="Rm1JZIe86LfK_nkms-XK-27" style="edgeStyle=orthogonalEdgeStyle;rounded=0;orthogonalLoop=1;jettySize=auto;html=1;exitX=1;exitY=0.5;exitDx=0;exitDy=0;entryX=0;entryY=0.5;entryDx=0;entryDy=0;" edge="1" parent="1" source="Rm1JZIe86LfK_nkms-XK-13" target="Rm1JZIe86LfK_nkms-XK-19">
          <mxGeometry relative="1" as="geometry" />
        </mxCell>
        <mxCell id="Rm1JZIe86LfK_nkms-XK-28" style="edgeStyle=orthogonalEdgeStyle;rounded=0;orthogonalLoop=1;jettySize=auto;html=1;exitX=1;exitY=0.5;exitDx=0;exitDy=0;entryX=0;entryY=0.5;entryDx=0;entryDy=0;" edge="1" parent="1" source="Rm1JZIe86LfK_nkms-XK-13" target="Rm1JZIe86LfK_nkms-XK-20">
          <mxGeometry relative="1" as="geometry" />
        </mxCell>
        <mxCell id="Rm1JZIe86LfK_nkms-XK-13" value="编码器" style="rounded=0;whiteSpace=wrap;html=1;" vertex="1" parent="1">
          <mxGeometry x="410" y="555" width="120" height="60" as="geometry" />
        </mxCell>
        <mxCell id="Rm1JZIe86LfK_nkms-XK-14" style="edgeStyle=orthogonalEdgeStyle;rounded=0;orthogonalLoop=1;jettySize=auto;html=1;entryX=0;entryY=0.5;entryDx=0;entryDy=0;" edge="1" parent="1" source="Rm1JZIe86LfK_nkms-XK-15" target="Rm1JZIe86LfK_nkms-XK-17">
          <mxGeometry relative="1" as="geometry" />
        </mxCell>
        <mxCell id="Rm1JZIe86LfK_nkms-XK-15" value="pose guidance&lt;br&gt;vectors" style="rounded=0;whiteSpace=wrap;html=1;fillColor=#f5f5f5;fontColor=#333333;strokeColor=#666666;" vertex="1" parent="1">
          <mxGeometry x="620" y="510" width="120" height="60" as="geometry" />
        </mxCell>
        <mxCell id="Rm1JZIe86LfK_nkms-XK-16" style="edgeStyle=orthogonalEdgeStyle;rounded=0;orthogonalLoop=1;jettySize=auto;html=1;" edge="1" parent="1" source="Rm1JZIe86LfK_nkms-XK-17" target="Rm1JZIe86LfK_nkms-XK-18">
          <mxGeometry relative="1" as="geometry" />
        </mxCell>
        <mxCell id="Rm1JZIe86LfK_nkms-XK-17" value="生成式解码器" style="rounded=0;whiteSpace=wrap;html=1;" vertex="1" parent="1">
          <mxGeometry x="830" y="555" width="120" height="60" as="geometry" />
        </mxCell>
        <mxCell id="Rm1JZIe86LfK_nkms-XK-18" value="对应不同程度语义信息&lt;br&gt;图像/视频" style="rounded=1;whiteSpace=wrap;html=1;fillColor=#dae8fc;strokeColor=#6c8ebf;" vertex="1" parent="1">
          <mxGeometry x="1000" y="550" width="130" height="70" as="geometry" />
        </mxCell>
        <mxCell id="Rm1JZIe86LfK_nkms-XK-30" style="edgeStyle=orthogonalEdgeStyle;rounded=0;orthogonalLoop=1;jettySize=auto;html=1;entryX=0;entryY=0.5;entryDx=0;entryDy=0;" edge="1" parent="1" source="Rm1JZIe86LfK_nkms-XK-19" target="Rm1JZIe86LfK_nkms-XK-17">
          <mxGeometry relative="1" as="geometry" />
        </mxCell>
        <mxCell id="Rm1JZIe86LfK_nkms-XK-19" value="segment guidance&lt;div&gt;vectors&lt;/div&gt;" style="rounded=0;whiteSpace=wrap;html=1;fillColor=#f5f5f5;fontColor=#333333;strokeColor=#666666;" vertex="1" parent="1">
          <mxGeometry x="620" y="608" width="120" height="60" as="geometry" />
        </mxCell>
        <mxCell id="Rm1JZIe86LfK_nkms-XK-31" style="edgeStyle=orthogonalEdgeStyle;rounded=0;orthogonalLoop=1;jettySize=auto;html=1;entryX=0;entryY=0.5;entryDx=0;entryDy=0;" edge="1" parent="1" source="Rm1JZIe86LfK_nkms-XK-20" target="Rm1JZIe86LfK_nkms-XK-17">
          <mxGeometry relative="1" as="geometry" />
        </mxCell>
        <mxCell id="Rm1JZIe86LfK_nkms-XK-20" value="edge guidance&lt;div&gt;vectors&lt;/div&gt;" style="rounded=0;whiteSpace=wrap;html=1;" vertex="1" parent="1">
          <mxGeometry x="620" y="730" width="120" height="60" as="geometry" />
        </mxCell>
        <mxCell id="Rm1JZIe86LfK_nkms-XK-29" style="edgeStyle=orthogonalEdgeStyle;rounded=0;orthogonalLoop=1;jettySize=auto;html=1;entryX=0;entryY=0.5;entryDx=0;entryDy=0;" edge="1" parent="1" source="Rm1JZIe86LfK_nkms-XK-21" target="Rm1JZIe86LfK_nkms-XK-17">
          <mxGeometry relative="1" as="geometry" />
        </mxCell>
        <mxCell id="Rm1JZIe86LfK_nkms-XK-21" value="结构化prompt" style="rounded=0;whiteSpace=wrap;html=1;fillColor=#f8cecc;strokeColor=#b85450;" vertex="1" parent="1">
          <mxGeometry x="620" y="414" width="120" height="60" as="geometry" />
        </mxCell>
        <mxCell id="Rm1JZIe86LfK_nkms-XK-23" style="edgeStyle=orthogonalEdgeStyle;rounded=0;orthogonalLoop=1;jettySize=auto;html=1;entryX=0.5;entryY=1;entryDx=0;entryDy=0;" edge="1" parent="1" source="Rm1JZIe86LfK_nkms-XK-22" target="Rm1JZIe86LfK_nkms-XK-13">
          <mxGeometry relative="1" as="geometry" />
        </mxCell>
        <mxCell id="Rm1JZIe86LfK_nkms-XK-22" value="prompt receiver &amp;amp; decoder" style="rounded=0;whiteSpace=wrap;html=1;" vertex="1" parent="1">
          <mxGeometry x="410" y="670" width="120" height="60" as="geometry" />
        </mxCell>
        <mxCell id="Rm1JZIe86LfK_nkms-XK-33" value="&lt;font style=&quot;font-size: 30px;&quot;&gt;············&lt;/font&gt;" style="text;html=1;align=center;verticalAlign=middle;resizable=0;points=[];autosize=1;strokeColor=none;fillColor=none;" vertex="1" parent="1">
          <mxGeometry x="610" y="680" width="140" height="50" as="geometry" />
        </mxCell>
        <mxCell id="Rm1JZIe86LfK_nkms-XK-36" style="edgeStyle=orthogonalEdgeStyle;rounded=0;orthogonalLoop=1;jettySize=auto;html=1;entryX=0;entryY=0.5;entryDx=0;entryDy=0;" edge="1" parent="1" source="Rm1JZIe86LfK_nkms-XK-34" target="Rm1JZIe86LfK_nkms-XK-35">
          <mxGeometry relative="1" as="geometry" />
        </mxCell>
        <mxCell id="Rm1JZIe86LfK_nkms-XK-34" value="用户prompt&lt;div&gt;用户需求参数&lt;/div&gt;" style="rounded=1;whiteSpace=wrap;html=1;fillColor=#ffe6cc;strokeColor=#d79b00;" vertex="1" parent="1">
          <mxGeometry x="230" y="965" width="130" height="70" as="geometry" />
        </mxCell>
        <mxCell id="Rm1JZIe86LfK_nkms-XK-38" style="edgeStyle=orthogonalEdgeStyle;rounded=0;orthogonalLoop=1;jettySize=auto;html=1;entryX=0;entryY=0.5;entryDx=0;entryDy=0;" edge="1" parent="1" source="Rm1JZIe86LfK_nkms-XK-35" target="Rm1JZIe86LfK_nkms-XK-37">
          <mxGeometry relative="1" as="geometry" />
        </mxCell>
        <mxCell id="Rm1JZIe86LfK_nkms-XK-35" value="Encoder" style="rounded=0;whiteSpace=wrap;html=1;" vertex="1" parent="1">
          <mxGeometry x="430" y="970" width="120" height="60" as="geometry" />
        </mxCell>
        <mxCell id="Rm1JZIe86LfK_nkms-XK-39" style="edgeStyle=orthogonalEdgeStyle;rounded=0;orthogonalLoop=1;jettySize=auto;html=1;strokeWidth=3;entryX=0.5;entryY=1;entryDx=0;entryDy=0;" edge="1" parent="1" source="Rm1JZIe86LfK_nkms-XK-37" target="Rm1JZIe86LfK_nkms-XK-22">
          <mxGeometry relative="1" as="geometry">
            <mxPoint x="470" y="740" as="targetPoint" />
            <Array as="points">
              <mxPoint x="690" y="920" />
              <mxPoint x="470" y="920" />
            </Array>
          </mxGeometry>
        </mxCell>
        <mxCell id="Rm1JZIe86LfK_nkms-XK-40" style="edgeStyle=orthogonalEdgeStyle;rounded=0;orthogonalLoop=1;jettySize=auto;html=1;entryX=0.5;entryY=1;entryDx=0;entryDy=0;strokeWidth=3;" edge="1" parent="1" source="Rm1JZIe86LfK_nkms-XK-37" target="Rm1JZIe86LfK_nkms-XK-17">
          <mxGeometry relative="1" as="geometry" />
        </mxCell>
        <mxCell id="Rm1JZIe86LfK_nkms-XK-37" value="prompt vectors &amp;amp;&lt;br&gt;config paraments" style="rounded=0;whiteSpace=wrap;html=1;" vertex="1" parent="1">
          <mxGeometry x="630" y="970" width="120" height="60" as="geometry" />
        </mxCell>
        <mxCell id="Rm1JZIe86LfK_nkms-XK-42" value="disabled" style="text;html=1;align=center;verticalAlign=middle;resizable=0;points=[];autosize=1;strokeColor=none;fillColor=none;" vertex="1" parent="1">
          <mxGeometry x="720" y="570" width="70" height="30" as="geometry" />
        </mxCell>
        <mxCell id="Rm1JZIe86LfK_nkms-XK-43" value="disabled" style="text;html=1;align=center;verticalAlign=middle;resizable=0;points=[];autosize=1;strokeColor=none;fillColor=none;" vertex="1" parent="1">
          <mxGeometry x="730" y="770" width="70" height="30" as="geometry" />
        </mxCell>
        <mxCell id="Rm1JZIe86LfK_nkms-XK-45" value="结构化码流" style="text;html=1;align=center;verticalAlign=middle;resizable=0;points=[];autosize=1;strokeColor=none;fillColor=none;" vertex="1" parent="1">
          <mxGeometry x="520" y="820" width="80" height="30" as="geometry" />
        </mxCell>
        <mxCell id="Rm1JZIe86LfK_nkms-XK-47" value="essential" style="text;html=1;align=center;verticalAlign=middle;resizable=0;points=[];autosize=1;strokeColor=none;fillColor=none;" vertex="1" parent="1">
          <mxGeometry x="710" y="470" width="70" height="30" as="geometry" />
        </mxCell>
        <mxCell id="Rm1JZIe86LfK_nkms-XK-48" value="partial transmission" style="text;html=1;align=center;verticalAlign=middle;resizable=0;points=[];autosize=1;strokeColor=none;fillColor=none;" vertex="1" parent="1">
          <mxGeometry x="660" y="668" width="130" height="30" as="geometry" />
        </mxCell>
        <mxCell id="Rm1JZIe86LfK_nkms-XK-49" value="information channel" style="text;html=1;align=center;verticalAlign=middle;resizable=0;points=[];autosize=1;strokeColor=none;fillColor=none;" vertex="1" parent="1">
          <mxGeometry x="490" y="920" width="130" height="30" as="geometry" />
        </mxCell>
        <mxCell id="Rm1JZIe86LfK_nkms-XK-51" value="information channel" style="text;html=1;align=center;verticalAlign=middle;resizable=0;points=[];autosize=1;strokeColor=none;fillColor=none;" vertex="1" parent="1">
          <mxGeometry x="760" y="1000" width="130" height="30" as="geometry" />
        </mxCell>
      </root>
    </mxGraphModel>
  </diagram>
</mxfile>
